<svg width="20" height="16" viewBox="0 0 20 16" fill="none" xmlns="http://www.w3.org/2000/svg">
<path fill-rule="evenodd" clip-rule="evenodd" d="M10 0.333496L10.0669 0.333584L10.2536 0.334189C10.4147 0.334879 10.6461 0.336258 10.9281 0.339013C11.4918 0.344518 12.2593 0.355535 13.0731 0.377614C13.8854 0.399653 14.7511 0.432903 15.5088 0.483363C16.2406 0.532099 16.95 0.601164 17.404 0.712039C17.4158 0.714903 17.4274 0.717978 17.439 0.721265C18.0007 0.88016 18.5104 1.18445 18.9168 1.60341C19.3232 2.02237 19.6118 2.54115 19.7536 3.10736L18.7835 3.35016L19.7676 3.17265C20.0426 4.69725 20.1763 6.24399 20.1668 7.79316C20.172 9.31916 20.0384 10.8425 19.7676 12.3443C19.7637 12.3662 19.759 12.388 19.7536 12.4096C19.6118 12.9758 19.3232 13.4946 18.9168 13.9136C18.5104 14.3325 18.0007 14.6368 17.439 14.7957L17.4252 14.7995C16.9632 14.9231 16.2466 14.9991 15.5151 15.0525C14.7556 15.1079 13.8886 15.1443 13.0757 15.1685C12.2612 15.1927 11.4931 15.2047 10.9291 15.2108C10.6469 15.2138 10.4153 15.2153 10.254 15.2161L10.0671 15.2167L10.0003 15.2168L9.9332 15.2167L9.7463 15.2161C9.585 15.2153 9.35343 15.2138 9.07122 15.2108C8.50722 15.2047 7.73909 15.1927 6.92461 15.1685C6.11174 15.1443 5.24467 15.1079 4.48522 15.0525C3.75373 14.9991 3.0371 14.9231 2.57512 14.7995L2.56956 14.7981C2.01935 14.6475 1.51728 14.3576 1.11184 13.9563C0.706396 13.5551 0.411299 13.056 0.255059 12.5074C0.24602 12.4757 0.238557 12.4435 0.232699 12.411C-0.0422679 10.8866 -0.175911 9.34011 -0.166531 7.79116C-0.173784 6.2538 -0.0401522 4.719 0.232692 3.20602C0.236646 3.18409 0.241333 3.1623 0.246743 3.14069C0.388463 2.57448 0.677093 2.0557 1.08348 1.63674C1.48987 1.21779 1.99962 0.913493 2.56125 0.754598L2.57512 0.750781C3.0371 0.627228 3.75373 0.551218 4.48522 0.497864C5.24467 0.442471 6.11174 0.406009 6.92461 0.381854C7.73909 0.357651 8.50722 0.345576 9.07122 0.339543C9.35343 0.336524 9.585 0.335013 9.7463 0.334256L9.9332 0.333592L10 0.333496ZM17.806 3.56484C17.7475 3.35102 17.6358 3.15528 17.4812 2.99593C17.324 2.83384 17.1278 2.71499 16.9116 2.65066C16.6425 2.58806 16.1055 2.52753 15.3759 2.47894C14.6555 2.43096 13.8191 2.39859 13.0189 2.37688C12.2201 2.35521 11.4648 2.34435 10.9086 2.33892C10.6307 2.3362 10.403 2.33485 10.245 2.33417L10.0629 2.33358L9.93762 2.33359L9.75569 2.33423C9.59785 2.33497 9.37031 2.33646 9.09262 2.33943C8.53683 2.34537 7.78204 2.35726 6.98402 2.38097C6.1844 2.40473 5.34938 2.44015 4.63071 2.49257C3.89087 2.54653 3.35633 2.61353 3.09887 2.68102C2.87861 2.74462 2.67874 2.86464 2.51906 3.02926C2.36449 3.18861 2.25283 3.38434 2.19427 3.59816C1.9473 4.98055 1.82653 6.38257 1.83347 7.78689L1.83353 7.79811C1.82468 9.20703 1.94432 10.6138 2.19106 12.0009C2.25566 12.2024 2.36798 12.3856 2.5187 12.5348C2.67898 12.6934 2.87729 12.8082 3.09464 12.8682C3.35044 12.9361 3.88678 13.0035 4.63071 13.0578C5.34938 13.1102 6.1844 13.1456 6.98402 13.1694C7.78204 13.1931 8.53683 13.2049 9.09262 13.2109C9.37031 13.2139 9.59785 13.2153 9.75569 13.2161L9.93762 13.2167H10.0627L10.2446 13.2161C10.4025 13.2153 10.63 13.2139 10.9077 13.2109C11.4635 13.2049 12.2183 13.1931 13.0163 13.1694C13.8159 13.1456 14.6509 13.1102 15.3696 13.0578C16.1094 13.0038 16.644 12.9368 16.9014 12.8693C17.1217 12.8057 17.3216 12.6857 17.4812 12.5211C17.6358 12.3617 17.7475 12.166 17.806 11.9522C18.0511 10.5803 18.1718 9.18907 18.1668 7.79542L18.1668 7.78555C18.1757 6.37055 18.0549 4.95775 17.806 3.56484Z" fill="#828282"/>
<path fill-rule="evenodd" clip-rule="evenodd" d="M7.62218 4.2025C7.92999 4.02345 8.3098 4.02159 8.61935 4.19763L13.411 6.92263C13.7236 7.10039 13.9167 7.4323 13.9167 7.79189C13.9167 8.15149 13.7236 8.4834 13.411 8.66116L8.61935 11.3862C8.3098 11.5622 7.92999 11.5603 7.62218 11.3813C7.31437 11.2022 7.125 10.873 7.125 10.5169V5.06689C7.125 4.71079 7.31437 4.38156 7.62218 4.2025ZM9.125 6.78599V8.7978L10.8938 7.79189L9.125 6.78599Z" fill="#828282"/>
</svg>
